<svg width="24" height="24" viewBox="0 0 24 24" fill="none" xmlns="http://www.w3.org/2000/svg">
    <path d="M7.17188 15.0469C7.17188 15.6941 6.6472 16.2188 6 16.2188C4.44553 16.157 4.44595 13.9365 6 13.875C6.6472 13.875 7.17188 14.3997 7.17188 15.0469ZM10.0312 13.875C9.38405 13.875 8.85938 14.3997 8.85938 15.0469C8.92111 16.6013 11.1416 16.6009 11.2031 15.0469C11.2031 14.3997 10.6785 13.875 10.0312 13.875ZM14.0625 13.875C13.4153 13.875 12.8906 14.3997 12.8906 15.0469C12.9524 16.6013 15.1729 16.6009 15.2344 15.0469C15.2344 14.3997 14.7097 13.875 14.0625 13.875ZM6 17.9062C5.3528 17.9062 4.82812 18.4309 4.82812 19.0781C4.88986 20.6326 7.11037 20.6322 7.17188 19.0781C7.17188 18.4309 6.6472 17.9062 6 17.9062ZM10.0312 17.9062C9.38405 17.9062 8.85938 18.4309 8.85938 19.0781C8.92111 20.6326 11.1416 20.6322 11.2031 19.0781C11.2031 18.4309 10.6785 17.9062 10.0312 17.9062ZM14.0625 17.9062C13.4153 17.9062 12.8906 18.4309 12.8906 19.0781C12.9524 20.6326 15.1729 20.6322 15.2344 19.0781C15.2344 18.4309 14.7097 17.9062 14.0625 17.9062ZM18.0938 17.9062C17.4465 17.9062 16.9219 18.4309 16.9219 19.0781C16.9836 20.6326 19.2041 20.6322 19.2656 19.0781C19.2656 18.4309 18.741 17.9062 18.0938 17.9062ZM24 10.6875V18.375C24 21.4766 21.4766 24 18.375 24H5.625C2.52338 24 0 21.4766 0 18.375V10.6875C0 7.58588 2.52338 5.0625 5.625 5.0625H18.375C21.4766 5.0625 24 7.58588 24 10.6875ZM22.125 10.6875C22.125 8.61975 20.4427 6.9375 18.375 6.9375H5.625C3.55725 6.9375 1.875 8.61975 1.875 10.6875V18.375C1.875 20.4427 3.55725 22.125 5.625 22.125H18.375C20.4427 22.125 22.125 20.4427 22.125 18.375V10.6875ZM19.3125 10.2188H4.6875C3.44362 10.2683 3.44456 12.0447 4.6875 12.0938H19.3125C20.5564 12.0442 20.5554 10.2678 19.3125 10.2188ZM9.46875 2.8125C9.46875 3.33028 9.04903 3.75 8.53125 3.75C8.01347 3.75 7.59375 3.33028 7.59375 2.8125C7.59375 2.29556 7.17319 1.875 6.65625 1.875C6.13931 1.875 5.71875 2.29556 5.71875 2.8125C5.71875 3.33028 5.29903 3.75 4.78125 3.75C4.26347 3.75 3.84375 3.33028 3.84375 2.8125C3.99834 -0.918797 9.31486 -0.917437 9.46875 2.8125ZM17.4375 0C15.8867 0 14.625 1.26169 14.625 2.8125C14.625 3.33028 15.0447 3.75 15.5625 3.75C16.0803 3.75 16.5 3.33028 16.5 2.8125C16.5 2.29556 16.9206 1.875 17.4375 1.875C17.9544 1.875 18.375 2.29556 18.375 2.8125C18.375 3.33028 18.7947 3.75 19.3125 3.75C19.8303 3.75 20.25 3.33028 20.25 2.8125C20.25 1.26169 18.9883 0 17.4375 0ZM18.0938 13.875C17.4465 13.875 16.9219 14.3997 16.9219 15.0469C16.9836 16.6013 19.2041 16.6009 19.2656 15.0469C19.2656 14.3997 18.741 13.875 18.0938 13.875Z"
          fill="#000000"/>
</svg>
