<svg width="24" height="24" viewBox="0 0 24 24" fill="none" xmlns="http://www.w3.org/2000/svg">
    <path d="M16.41 24H7.25999C6.62901 24.003 6.00374 23.8805 5.42049 23.6397C4.83724 23.399 4.30765 23.0447 3.86249 22.5975L1.61249 20.3475C1.09826 19.8293 0.691172 19.2148 0.414493 18.5392C0.137814 17.8636 -0.00303735 17.1401 -1.33566e-05 16.41V7.26001C-0.00213548 6.62915 0.120708 6.00411 0.361427 5.42098C0.602146 4.83785 0.955974 4.30816 1.40249 3.8625L3.65249 1.6125C4.69958 0.574654 6.11571 -0.00528575 7.58999 -2.36149e-06H16.74C18.0105 0.00345028 19.2284 0.50734 20.13 1.4025L22.38 3.6525C23.4206 4.69837 24.0033 6.11465 24 7.59001V16.74C23.9957 18.0103 23.492 19.228 22.5975 20.13L20.3475 22.38C19.8299 22.8956 19.2157 23.3041 18.54 23.5821C17.8644 23.86 17.1406 24.0021 16.41 24ZM7.58999 1.5975C7.06424 1.59703 6.54362 1.70086 6.05828 1.90298C5.57293 2.1051 5.1325 2.40149 4.76249 2.775L2.51249 5.025C2.21593 5.31996 1.98047 5.67052 1.8196 6.05661C1.65873 6.44271 1.5756 6.85674 1.57499 7.27501V16.41C1.57353 16.9352 1.67619 17.4555 1.87701 17.9409C2.07783 18.4262 2.37284 18.8669 2.74499 19.2375L4.99499 21.4875C5.2897 21.7844 5.64021 22.0201 6.02636 22.181C6.41251 22.3419 6.82667 22.4248 7.24499 22.425H16.41C16.9352 22.4265 17.4555 22.3238 17.9408 22.123C18.4262 21.9222 18.8669 21.6272 19.2375 21.255L21.4875 19.005C22.0823 18.4065 22.4189 17.5988 22.425 16.755V7.59001C22.4265 7.06478 22.3238 6.54448 22.123 6.05916C21.9222 5.57384 21.6272 5.13313 21.255 4.7625L19.005 2.5125C18.407 1.91701 17.5989 1.58032 16.755 1.575L7.58999 1.5975Z"
          fill="#000000"/>
    <path d="M12 13.5975C11.7872 13.5975 11.583 13.5129 11.4325 13.3624C11.282 13.2119 11.1975 13.0078 11.1975 12.795V6.4725C11.2167 6.27401 11.3092 6.0898 11.4569 5.95577C11.6045 5.82174 11.7968 5.74749 11.9962 5.74749C12.1957 5.74749 12.3879 5.82174 12.5356 5.95577C12.6833 6.0898 12.7757 6.27401 12.795 6.4725V12.8025C12.793 13.0127 12.7086 13.2138 12.56 13.3625C12.4113 13.5111 12.2102 13.5955 12 13.5975Z"
          fill="#000000"/>
    <path d="M12 18.3975C11.8946 18.3975 11.7902 18.3767 11.6929 18.3364C11.5955 18.2961 11.5071 18.237 11.4325 18.1625C11.358 18.0879 11.2989 17.9995 11.2586 17.9021C11.2182 17.8047 11.1975 17.7004 11.1975 17.595V16.095C11.2167 15.8965 11.3092 15.7123 11.4569 15.5783C11.6045 15.4442 11.7968 15.37 11.9962 15.37C12.1957 15.37 12.3879 15.4442 12.5356 15.5783C12.6833 15.7123 12.7757 15.8965 12.795 16.095V17.595C12.795 17.8065 12.7115 18.0095 12.5626 18.1598C12.4137 18.3101 12.2115 18.3955 12 18.3975Z"
          fill="#000000"/>
</svg>
