<svg width="24" height="24" viewBox="0 0 24 24" fill="none" xmlns="http://www.w3.org/2000/svg">
    <path d="M12 17.061C9.41525 17.061 7.31249 14.9582 7.31249 12.3735C7.31249 9.78885 9.41525 7.68604 12 7.68604C14.5847 7.68604 16.6875 9.78885 16.6875 12.3735C16.6875 14.9582 14.5847 17.061 12 17.061ZM12 9.56104C10.4492 9.56104 9.18749 10.8227 9.18749 12.3735C9.18749 13.9243 10.4492 15.186 12 15.186C13.5508 15.186 14.8125 13.9243 14.8125 12.3735C14.8125 10.8227 13.5508 9.56104 12 9.56104Z"
          fill="#000000"/>
    <path d="M12 20.811C7.15321 20.811 2.48019 16.4872 0.150223 12.8826C-0.0500742 12.5728 -0.0500742 12.1743 0.150223 11.8645C2.59143 8.08775 7.28858 3.93604 12 3.93604C16.8468 3.93604 21.5198 8.25983 23.8498 11.8645C24.0501 12.1743 24.0501 12.5728 23.8498 12.8826C21.4086 16.6593 16.7114 20.811 12 20.811ZM2.08194 12.3728C3.26961 13.9947 7.27639 18.936 12 18.936C16.7352 18.936 20.7324 13.9975 21.918 12.3743C20.7298 10.7517 16.7233 5.81104 12 5.81104C7.26477 5.81104 3.2676 10.7496 2.08194 12.3728Z"
          fill="#000000"/>
</svg>
