<svg width="16" height="16" viewBox="0 0 16 16" fill="none" xmlns="http://www.w3.org/2000/svg">
    <path d="M8.50003 0.888916C7.09359 0.888916 5.71873 1.30598 4.54931 2.08735C3.37989 2.86873 2.46844 3.97934 1.93022 5.27872C1.392 6.57811 1.25117 8.00792 1.52556 9.38734C1.79994 10.7668 2.47721 12.0338 3.47172 13.0283C4.46622 14.0229 5.7333 14.7001 7.11272 14.9745C8.49214 15.2489 9.92195 15.1081 11.2213 14.5698C12.5207 14.0316 13.6313 13.1202 14.4127 11.9507C15.1941 10.7813 15.6111 9.40647 15.6111 8.00003C15.6111 6.11404 14.8619 4.3053 13.5283 2.97171C12.1948 1.63812 10.386 0.888916 8.50003 0.888916ZM11.3089 10.1423C11.7807 9.52861 12.0365 8.77628 12.0365 8.00225C12.0365 7.22822 11.7807 6.47589 11.3089 5.86225L13.1756 4.00003C14.1329 5.11283 14.6594 6.53209 14.6594 8.00003C14.6594 9.46797 14.1329 10.8872 13.1756 12L11.3089 10.1423ZM5.90892 8.00003C5.90892 7.48755 6.06089 6.98659 6.3456 6.56048C6.63032 6.13438 7.03499 5.80227 7.50846 5.60615C7.98192 5.41004 8.50291 5.35873 9.00553 5.4587C9.50816 5.55868 9.96985 5.80546 10.3322 6.16784C10.6946 6.53021 10.9414 6.9919 11.0414 7.49453C11.1413 7.99715 11.09 8.51814 10.8939 8.9916C10.6978 9.46507 10.3657 9.86974 9.93958 10.1545C9.51347 10.4392 9.0125 10.5911 8.50003 10.5911C7.81283 10.5911 7.15377 10.3181 6.66784 9.83222C6.18191 9.34629 5.90892 8.68723 5.90892 8.00003ZM12.5 3.32447L10.6334 5.19114C10.0197 4.71937 9.26739 4.4636 8.49336 4.4636C7.71934 4.4636 6.967 4.71937 6.35336 5.19114L4.50003 3.32447C5.61283 2.36712 7.03209 1.84063 8.50003 1.84063C9.96797 1.84063 11.3872 2.36712 12.5 3.32447ZM3.82448 4.00003L5.69114 5.86669C5.21938 6.48033 4.96361 7.23267 4.96361 8.00669C4.96361 8.78072 5.21938 9.53305 5.69114 10.1467L3.82448 12C2.86712 10.8872 2.34063 9.46797 2.34063 8.00003C2.34063 6.53209 2.86712 5.11283 3.82448 4.00003ZM4.50003 12.6756L6.3667 10.8089C6.98034 11.2807 7.73267 11.5365 8.5067 11.5365C9.28072 11.5365 10.0331 11.2807 10.6467 10.8089L12.5134 12.6756C11.4006 13.6329 9.98131 14.1594 8.51336 14.1594C7.04542 14.1594 5.62616 13.6329 4.51336 12.6756H4.50003Z"
          fill="#000000"/>
</svg>
