<svg width="24" height="24" viewBox="0 0 24 24" fill="none" xmlns="http://www.w3.org/2000/svg">
    <path d="M12 22.6667C9.89032 22.6667 7.82803 22.0411 6.0739 20.869C4.31978 19.6969 2.9526 18.031 2.14527 16.082C1.33793 14.1329 1.1267 11.9882 1.53827 9.91904C1.94985 7.84991 2.96575 5.94929 4.45751 4.45753C5.94927 2.96577 7.84989 1.94987 9.91902 1.53829C11.9882 1.12671 14.1329 1.33795 16.0819 2.14528C18.031 2.95262 19.6969 4.31979 20.869 6.07392C22.0411 7.82804 22.6667 9.89033 22.6667 12C22.6667 14.829 21.5428 17.5421 19.5425 19.5425C17.5421 21.5429 14.829 22.6667 12 22.6667ZM12 2.75333C10.1712 2.75333 8.38342 3.29564 6.86281 4.31168C5.34221 5.32771 4.15704 6.77185 3.45718 8.46145C2.75732 10.1511 2.57421 12.0103 2.93099 13.8039C3.28777 15.5976 4.16843 17.2452 5.4616 18.5384C6.75477 19.8316 8.40237 20.7122 10.196 21.069C11.9897 21.4258 13.8489 21.2427 15.5385 20.5428C17.2281 19.8429 18.6723 18.6578 19.6883 17.1372C20.7043 15.6166 21.2467 13.8288 21.2467 12C21.2449 9.54817 20.2701 7.19727 18.5364 5.46357C16.8027 3.72987 14.4518 2.7551 12 2.75333Z"
          fill="#000000"/>
    <path d="M11.2867 10.58H12.7067V16.2667H11.2867V10.58ZM11.2867 7.73333H12.7067V9.15333H11.2867V7.73333Z"
          fill="#000000"/>
</svg>
