<svg width="24" height="24" viewBox="0 0 24 24" fill="none" xmlns="http://www.w3.org/2000/svg">
    <path d="M16.7826 0.7875C16.6815 0.718996 16.5662 0.674443 16.4453 0.657232C16.3245 0.640021 16.2013 0.650604 16.0852 0.688178C15.969 0.725751 15.863 0.789324 15.7751 0.874058C15.6873 0.958793 15.6199 1.06245 15.5781 1.17716C15.5364 1.29186 15.5213 1.41457 15.5341 1.53596C15.5469 1.65736 15.5873 1.77423 15.6521 1.87768C15.7169 1.98113 15.8044 2.06844 15.908 2.13296C16.0117 2.19748 16.1286 2.23751 16.2501 2.25C18.4253 3.07868 20.2595 4.61351 21.4588 6.60859C22.658 8.60366 23.1529 10.9435 22.8642 13.2533C22.5755 15.5631 21.5198 17.7092 19.8664 19.3477C18.2129 20.9862 16.0574 22.0223 13.7451 22.29L14.8401 19.5C14.879 19.4015 14.8981 19.2963 14.8963 19.1904C14.8946 19.0846 14.872 18.9801 14.8299 18.8829C14.7877 18.7857 14.7269 18.6978 14.6508 18.6242C14.5747 18.5506 14.4848 18.4927 14.3863 18.4538C14.2878 18.4148 14.1826 18.3957 14.0767 18.3975C13.9709 18.3992 13.8664 18.4218 13.7692 18.4639C13.6721 18.5061 13.5842 18.5669 13.5105 18.643C13.4369 18.7191 13.379 18.809 13.3401 18.9075L11.7501 22.89C11.7082 23.0128 11.6953 23.1437 11.7125 23.2724C11.7296 23.401 11.7764 23.5239 11.8491 23.6315C11.9217 23.739 12.0183 23.8283 12.1313 23.8922C12.2442 23.9562 12.3705 23.993 12.5001 24C15.3062 24.0016 18.0242 23.0198 20.1814 21.2252C22.3387 19.4306 23.7988 16.9367 24.3079 14.1772C24.817 11.4176 24.3429 8.56687 22.9681 6.12062C21.5932 3.67437 19.4045 1.7873 16.7826 0.7875ZM13.2501 1.095C13.2941 0.973055 13.3085 0.842381 13.2921 0.713768C13.2757 0.585155 13.2289 0.462292 13.1556 0.355322C13.0824 0.248351 12.9847 0.160342 12.8707 0.0985598C12.7567 0.0367776 12.6297 0.00299464 12.5001 0C9.69586 0.00361445 6.98147 0.989187 4.82821 2.78559C2.67496 4.58199 1.21882 7.07576 0.712641 9.8339C0.206462 12.592 0.682208 15.4404 2.05727 17.8843C3.43234 20.3282 5.61988 22.2134 8.24006 23.2125C8.34179 23.2822 8.45822 23.3275 8.58031 23.345C8.7024 23.3624 8.82686 23.3514 8.94403 23.313C9.06121 23.2745 9.16794 23.2095 9.25594 23.1231C9.34394 23.0367 9.41084 22.9312 9.45144 22.8148C9.49205 22.6983 9.50527 22.5741 9.49008 22.4517C9.4749 22.3293 9.4317 22.2121 9.36386 22.1091C9.29602 22.0061 9.20535 21.9201 9.0989 21.8578C8.99245 21.7956 8.87308 21.7587 8.75006 21.75C6.55869 20.9292 4.70836 19.393 3.49847 17.39C2.28858 15.387 1.78991 13.0344 2.08315 10.7128C2.37639 8.39122 3.44437 6.23647 5.11431 4.59723C6.78424 2.95798 8.95842 1.93013 11.2851 1.68L10.1601 4.5C10.1212 4.59849 10.102 4.70368 10.1038 4.80956C10.1055 4.91545 10.1281 5.01995 10.1702 5.1171C10.2553 5.31331 10.4149 5.46768 10.6138 5.54625C10.7123 5.58515 10.8175 5.60428 10.9234 5.60253C11.0293 5.60078 11.1338 5.5782 11.2309 5.53606C11.4271 5.45097 11.5815 5.29141 11.6601 5.0925L13.2501 1.095Z"
          fill="#000000"/>
</svg>
