<svg width="24" height="24" viewBox="0 0 24 24" fill="none" xmlns="http://www.w3.org/2000/svg">
    <path d="M9.83996 17.08C9.70862 17.0801 9.57856 17.0543 9.45723 17.004C9.3359 16.9538 9.2257 16.88 9.13296 16.787L5.29296 12.947C5.19745 12.8547 5.12127 12.7444 5.06886 12.6224C5.01645 12.5004 4.98886 12.3692 4.98771 12.2364C4.98655 12.1036 5.01186 11.9719 5.06214 11.849C5.11242 11.7261 5.18667 11.6145 5.28056 11.5206C5.37446 11.4267 5.48611 11.3525 5.60901 11.3022C5.7319 11.2519 5.86358 11.2266 5.99636 11.2277C6.12914 11.2289 6.26036 11.2565 6.38236 11.3089C6.50437 11.3613 6.61471 11.4375 6.70696 11.533L9.83996 14.666L17.293 7.21299C17.4816 7.03084 17.7342 6.93004 17.9964 6.93232C18.2586 6.9346 18.5094 7.03977 18.6948 7.22518C18.8802 7.41058 18.9854 7.6614 18.9876 7.92359C18.9899 8.18579 18.8891 8.43839 18.707 8.62699L10.547 16.787C10.4542 16.88 10.344 16.9538 10.2227 17.004C10.1014 17.0543 9.97129 17.0801 9.83996 17.08Z"
          fill="#000000"/>
</svg>